<svg xmlns="http://www.w3.org/2000/svg"
     viewBox="0 0 130 130"
     role="img"
     aria-label="Leaf icon">
  <path d="M 105 8 L 104 8 L 102 10 L 102 12 L 97 18 L 97 19 L 92 23 L 85 25 L 84 26 L 72 27 L 71 28 L 68 28 L 67 29 L 61 29 L 60 30 L 57 30 L 47 35 L 44 38 L 43 38 L 38 44 L 37 44 L 31 56 L 31 61 L 32 61 L 37 57 L 39 57 L 44 54 L 50 53 L 54 51 L 68 50 L 69 49 L 73 48 L 76 51 L 76 53 L 72 56 L 68 56 L 67 57 L 64 57 L 63 58 L 56 58 L 55 59 L 52 59 L 51 60 L 45 61 L 37 65 L 26 75 L 26 76 L 23 79 L 22 82 L 20 84 L 20 86 L 18 88 L 18 90 L 17 91 L 17 96 L 16 97 L 16 112 L 17 113 L 17 116 L 19 119 L 21 120 L 24 120 L 27 117 L 27 111 L 26 110 L 26 100 L 27 99 L 27 94 L 31 86 L 33 84 L 35 85 L 37 89 L 46 98 L 50 100 L 52 100 L 54 102 L 56 102 L 57 103 L 61 103 L 62 104 L 66 104 L 67 105 L 69 105 L 70 104 L 75 104 L 76 103 L 79 103 L 80 102 L 83 102 L 85 100 L 87 100 L 91 97 L 94 96 L 103 87 L 103 86 L 108 80 L 109 76 L 111 74 L 112 69 L 114 66 L 115 55 L 116 54 L 116 39 L 115 38 L 114 27 L 112 24 L 112 20 L 109 16 L 109 14 L 107 10 Z"
        fill="#10B981"
        fill-rule="evenodd"
        clip-rule="evenodd"/>
</svg>
